:FULLY-SPECIFIED
:FORCE-ALL-JOINTS-BE-3DOF
:DEGREES
238
root 6.37439 15.8566 -25.6789 8.54037 34.9684 -3.7925
lfemur -33.9362 23.224 -12.0605
ltibia 42.5356 0 0
lfoot -20.4492 -0.936193 0
ltoes 35.5374 0 0
rfemur -12.3445 0.482126 1.91455
rtibia 40.3502 0 0
rfoot -35.1943 -24.6483 0
rtoes 55.386 0 0
lowerback -0.235058 -2.79236 1.4745
upperback -1.2775 -3.65106 2.04301
thorax -1.10155 -1.82126 1.28985
lowerneck -9.95217 -4.71311 0.594812
upperneck 2.45105 -6.41719 0.851418
head 2.53324 -3.14815 -0.1579
lclavicle -2.04748e-14 7.33238e-15 0
lhumerus -55.604 -34.6793 121.402
lradius 61.5579 0 0
lwrist 18.0769 0 0
lhand 9.08077 14.4916 0
lfingers 7.12502 0 0
lthumb 34.0836 39.935 0
rclavicle -2.04748e-14 7.33238e-15 0
rhumerus -35.4481 -17.773 -57.7438
rradius 60.2142 0 0
rwrist 10.6943 0 0
rhand -18.8445 -29.8503 0
rfingers 7.12502 0 0
rthumb 7.45417 -735.156 0
239
root 6.41652 15.8791 -25.6849 8.57672 35.9716 -4.05045
lfemur -35.0773 23.9082 -12.4134
ltibia 43.5496 0 0
lfoot -20.018 -0.636781 0
ltoes 35.2243 0 0
rfemur -11.8106 1.04751 2.19971
rtibia 40.0542 0 0
rfoot -35.4315 -25.8288 0
rtoes 55.2516 0 0
lowerback -0.159861 -2.83058 1.52756
upperback -1.29359 -3.70217 2.30942
thorax -1.15161 -1.84636 1.53966
lowerneck -9.91236 -4.85199 0.419349
upperneck 2.41205 -6.57347 0.809862
head 2.51306 -3.23084 -0.148496
lclavicle -2.07556e-14 9.23449e-15 0
lhumerus -55.4993 -34.3397 121.536
lradius 61.7646 0 0
lwrist 17.8782 0 0
lhand 8.21379 14.076 0
lfingers 7.12502 0 0
lthumb 33.2915 39.9364 0
rclavicle -2.07556e-14 9.23449e-15 0
rhumerus -36.3563 -17.5241 -58.942
rradius 60.3987 0 0
rwrist 11.585 0 0
rhand -18.3107 -29.0197 0
rfingers 7.12502 0 0
rthumb 7.96949 -742.982 0
240
root 6.45484 15.8996 -25.6904 8.60979 36.8841 -4.28504
lfemur -36.1152 24.5304 -12.7343
ltibia 44.4718 0 0
lfoot -19.6258 -0.364472 0
ltoes 34.9396 0 0
rfemur -11.3252 1.56171 2.45906
rtibia 39.7849 0 0
rfoot -35.6472 -26.9024 0
rtoes 55.1294 0 0
lowerback -0.0914722 -2.86535 1.57582
upperback -1.30822 -3.74866 2.5517
thorax -1.19715 -1.8692 1.76686
lowerneck -9.87615 -4.9783 0.25977
upperneck 2.37657 -6.7156 0.772068
head 2.49471 -3.30604 -0.139943
lclavicle -2.1011e-14 1.09644e-14 0
lhumerus -55.4041 -34.0308 121.657
lradius 61.9525 0 0
lwrist 17.6975 0 0
lhand 7.42529 13.6979 0
lfingers 7.12502 0 0
lthumb 32.571 39.9377 0
rclavicle -2.1011e-14 1.09644e-14 0
rhumerus -37.1824 -17.2977 -60.0318
rradius 60.5666 0 0
rwrist 12.3951 0 0
rhand -17.8252 -28.2643 0
rfingers 7.12502 0 0
rthumb 8.43817 -750.099 0
241
root 6.48903 15.9179 -25.6952 8.63929 37.6985 -4.49441
lfemur -37.0414 25.0857 -13.0207
ltibia 45.295 0 0
lfoot -19.2757 -0.121437 0
ltoes 34.6855 0 0
rfemur -10.8919 2.02063 2.69052
rtibia 39.5446 0 0
rfoot -35.8397 -27.8606 0
rtoes 55.0203 0 0
lowerback -0.0304347 -2.89638 1.61889
upperback -1.32128 -3.79016 2.76795
thorax -1.23778 -1.88958 1.96963
lowerneck -9.84383 -5.09103 0.117345
upperneck 2.34491 -6.84245 0.738336
head 2.47833 -3.37316 -0.13231
lclavicle -2.12389e-14 1.25084e-14 0
lhumerus -55.3192 -33.7551 121.766
lradius 62.1203 0 0
lwrist 17.5362 0 0
lhand 6.72155 13.3606 0
lfingers 7.12502 0 0
lthumb 31.928 39.9389 0
rclavicle -2.12389e-14 1.25084e-14 0
rhumerus -37.9196 -17.0957 -61.0044
rradius 60.7165 0 0
rwrist 13.1181 0 0
rhand -17.392 -27.5901 0
rfingers 7.12502 0 0
rthumb 8.85646 -756.452 0
242
root 6.51881 15.9338 -25.6995 8.66498 38.4075 -4.6767
lfemur -37.8479 25.5691 -13.27
ltibia 46.0116 0 0
lfoot -18.971 0.0901579 0
ltoes 34.4642 0 0
rfemur -10.5146 2.42019 2.89205
rtibia 39.3354 0 0
rfoot -36.0073 -28.6948 0
rtoes 54.9254 0 0
lowerback 0.0227065 -2.92339 1.65639
upperback -1.33265 -3.82628 2.95621
thorax -1.27316 -1.90732 2.14618
lowerneck -9.8157 -5.18917 -0.00665424
upperneck 2.31734 -6.95289 0.708969
head 2.46407 -3.4316 -0.125664
lclavicle -2.14373e-14 1.38526e-14 0
lhumerus -55.2452 -33.5151 121.86
lradius 62.2664 0 0
lwrist 17.3958 0 0
lhand 6.10886 13.0668 0
lfingers 7.12502 0 0
lthumb 31.3682 39.9399 0
rclavicle -2.14373e-14 1.38526e-14 0
rhumerus -38.5615 -16.9198 -61.8512
rradius 60.8469 0 0
rwrist 13.7476 0 0
rhand -17.0147 -27.0032 0
rfingers 7.12502 0 0
rthumb 9.22063 -761.982 0
243
root 6.54385 15.9472 -25.703 8.68659 39.0039 -4.83003
lfemur -38.5262 25.9758 -13.4798
ltibia 46.6144 0 0
lfoot -18.7147 0.268143 0
ltoes 34.2781 0 0
rfemur -10.1973 2.75628 3.06156
rtibia 39.1594 0 0
rfoot -36.1483 -29.3966 0
rtoes 54.8455 0 0
lowerback 0.0674069 -2.94611 1.68793
upperback -1.34221 -3.85667 3.11457
thorax -1.30293 -1.92224 2.29468
lowerneck -9.79203 -5.27173 -0.110958
upperneck 2.29415 -7.04579 0.684266
head 2.45207 -3.48075 -0.120074
lclavicle -2.16042e-14 1.49833e-14 0
lhumerus -55.183 -33.3132 121.94
lradius 62.3893 0 0
lwrist 17.2776 0 0
lhand 5.59348 12.8197 0
lfingers 7.12502 0 0
lthumb 30.8973 39.9407 0
rclavicle -2.16042e-14 1.49833e-14 0
rhumerus -39.1014 -16.7719 -62.5634
rradius 60.9566 0 0
rwrist 14.277 0 0
rhand -16.6974 -26.5094 0
rfingers 7.12502 0 0
rthumb 9.52697 -766.635 0
244
root 6.56386 15.9579 -25.7059 8.70386 39.4804 -4.95254
lfemur -39.0682 26.3007 -13.6474
ltibia 47.096 0 0
lfoot -18.5098 0.410351 0
ltoes 34.1294 0 0
rfemur -9.94377 3.02481 3.197
rtibia 39.0188 0 0
rfoot -36.261 -29.9572 0
rtoes 54.7817 0 0
lowerback 0.103122 -2.96427 1.71313
upperback -1.34986 -3.88095 3.2411
thorax -1.3267 -1.93417 2.41333
lowerneck -9.77312 -5.33769 -0.194295
upperneck 2.27563 -7.12002 0.664528
head 2.44248 -3.52002 -0.115607
lclavicle -2.17376e-14 1.58867e-14 0
lhumerus -55.1333 -33.1518 122.003
lradius 62.4874 0 0
lwrist 17.1833 0 0
lhand 5.18171 12.6223 0
lfingers 7.12502 0 0
lthumb 30.5211 39.9414 0
rclavicle -2.17376e-14 1.58867e-14 0
rhumerus -39.5328 -16.6537 -63.1325
rradius 61.0443 0 0
rwrist 14.7001 0 0
rhand -16.4439 -26.1149 0
rfingers 7.12502 0 0
rthumb 9.77172 -770.352 0
245
root 6.57853 15.9657 -25.708 8.71652 39.8298 -5.04236
lfemur -39.4656 26.539 -13.7702
ltibia 47.4491 0 0
lfoot -18.3597 0.514612 0
ltoes 34.0203 0 0
rfemur -9.75789 3.22168 3.29629
rtibia 38.9157 0 0
rfoot -36.3436 -30.3683 0
rtoes 54.7349 0 0
lowerback 0.129307 -2.97758 1.73161
upperback -1.35546 -3.89875 3.33387
thorax -1.34414 -1.94291 2.50032
lowerneck -9.75926 -5.38605 -0.255394
upperneck 2.26205 -7.17444 0.650058
head 2.43546 -3.54882 -0.112332
lclavicle -2.18353e-14 1.65491e-14 0
lhumerus -55.0969 -33.0336 122.05
lradius 62.5594 0 0
lwrist 17.1141 0 0
lhand 4.8798 12.4776 0
lfingers 7.12502 0 0
lthumb 30.2453 39.9419 0
rclavicle -2.18353e-14 1.65491e-14 0
rhumerus -39.8491 -16.567 -63.5498
rradius 61.1086 0 0
rwrist 15.0102 0 0
rhand -16.258 -25.8257 0
rfingers 7.12502 0 0
rthumb 9.95117 -773.077 0
246
root 6.58755 15.9706 -25.7093 8.72431 40.0447 -5.09762
lfemur -39.7101 26.6855 -13.8458
ltibia 47.6664 0 0
lfoot -18.2673 0.578759 0
ltoes 33.9533 0 0
rfemur -9.64352 3.34281 3.35739
rtibia 38.8523 0 0
rfoot -36.3944 -30.6212 0
rtoes 54.7061 0 0
lowerback 0.145417 -2.98577 1.74298
upperback -1.35891 -3.9097 3.39095
thorax -1.35486 -1.94829 2.55384
lowerneck -9.75073 -5.41581 -0.292986
upperneck 2.25369 -7.20792 0.641155
head 2.43113 -3.56653 -0.110318
lclavicle -2.18955e-14 1.69566e-14 0
lhumerus -55.0744 -32.9608 122.078
lradius 62.6037 0 0
lwrist 17.0715 0 0
lhand 4.69406 12.3886 0
lfingers 7.12502 0 0
lthumb 30.0755 39.9422 0
rclavicle -2.18955e-14 1.69566e-14 0
rhumerus -40.0437 -16.5137 -63.8065
rradius 61.1481 0 0
rwrist 15.2011 0 0
rhand -16.1437 -25.6478 0
rfingers 7.12502 0 0
rthumb 10.0616 -774.754 0
247
root 6.59063 15.9722 -25.7097 8.72696 40.118 -5.11646
lfemur -39.7934 26.7355 -13.8716
ltibia 47.7404 0 0
lfoot -18.2358 0.600623 0
ltoes 33.9304 0 0
rfemur -9.60454 3.3841 3.37821
rtibia 38.8307 0 0
rfoot -36.4117 -30.7074 0
rtoes 54.6963 0 0
lowerback 0.150908 -2.98856 1.74685
upperback -1.36008 -3.91343 3.4104
thorax -1.35852 -1.95012 2.57208
lowerneck -9.74782 -5.42595 -0.305799
upperneck 2.25084 -7.21933 0.63812
head 2.42966 -3.57257 -0.109631
lclavicle -2.1916e-14 1.70955e-14 0
lhumerus -55.0668 -32.936 122.088
lradius 62.6188 0 0
lwrist 17.057 0 0
lhand 4.63075 12.3582 0
lfingers 7.12502 0 0
lthumb 30.0177 39.9423 0
rclavicle -2.1916e-14 1.70955e-14 0
rhumerus -40.11 -16.4955 -63.894
rradius 61.1616 0 0
rwrist 15.2661 0 0
rhand -16.1047 -25.5871 0
rfingers 7.12502 0 0
rthumb 10.0992 -775.325 0
248
root 6.5956 15.9713 -25.7073 8.78957 40.1866 -5.01578
lfemur -39.7498 26.7009 -13.8859
ltibia 47.7491 0 0
lfoot -18.2275 0.543133 0
ltoes 33.9654 0 0
rfemur -9.66165 3.37559 3.40787
rtibia 38.8571 0 0
rfoot -36.3332 -30.6865 0
rtoes 54.6747 0 0
lowerback 0.163617 -2.99339 1.73289
upperback -1.34943 -3.92028 3.39745
thorax -1.35429 -1.95356 2.56724
lowerneck -9.73469 -5.4385 -0.316499
upperneck 2.25248 -7.2363 0.649741
head 2.43015 -3.58098 -0.104572
lclavicle -2.18707e-14 1.70958e-14 0
lhumerus -55.0451 -32.9514 122.056
lradius 62.6148 0 0
lwrist 17.0551 0 0
lhand 4.65283 12.3603 0
lfingers 7.12502 0 0
lthumb 30.0386 39.9392 0
rclavicle -2.18707e-14 1.70958e-14 0
rhumerus -40.1597 -16.4405 -63.9625
rradius 61.178 0 0
rwrist 15.2674 0 0
rhand -16.1278 -25.5536 0
rfingers 7.12502 0 0
rthumb 10.0769 -775.292 0
249
root 6.61019 15.9688 -25.7004 8.97326 40.3877 -4.7204
lfemur -39.6218 26.5994 -13.9277
ltibia 47.7748 0 0
lfoot -18.203 0.374463 0
ltoes 34.0682 0 0
rfemur -9.82922 3.35062 3.49489
rtibia 38.9347 0 0
rfoot -36.103 -30.6252 0
rtoes 54.6114 0 0
lowerback 0.200905 -3.00757 1.69192
upperback -1.3182 -3.94039 3.35946
thorax -1.3419 -1.96367 2.55303
lowerneck -9.69617 -5.47532 -0.347892
upperneck 2.25731 -7.28609 0.683836
head 2.43158 -3.60566 -0.0897276
lclavicle -2.17379e-14 1.70969e-14 0
lhumerus -54.9814 -32.9967 121.963
lradius 62.6031 0 0
lwrist 17.0497 0 0
lhand 4.71762 12.3666 0
lfingers 7.12502 0 0
lthumb 30.0999 39.9301 0
rclavicle -2.17379e-14 1.70969e-14 0
rhumerus -40.3054 -16.2793 -64.1636
rradius 61.2263 0 0
rwrist 15.2711 0 0
rhand -16.1955 -25.4552 0
rfingers 7.12502 0 0
rthumb 10.0116 -775.195 0
